<?xml version="1.0" encoding="UTF-8"?>
<!DOCTYPE svg PUBLIC "-//W3C//DTD SVG 1.1//EN" "http://www.w3.org/Graphics/SVG/1.1/DTD/svg11.dtd">
<svg xmlns="http://www.w3.org/2000/svg" version="1.1" width="412px" height="92px" style="shape-rendering:geometricPrecision; text-rendering:geometricPrecision; image-rendering:optimizeQuality; fill-rule:evenodd; clip-rule:evenodd" xmlns:xlink="http://www.w3.org/1999/xlink">
<g><path style="opacity:1" fill="#fafbfc" d="M -0.5,-0.5 C 136.833,-0.5 274.167,-0.5 411.5,-0.5C 411.5,30.1667 411.5,60.8333 411.5,91.5C 274.167,91.5 136.833,91.5 -0.5,91.5C -0.5,60.8333 -0.5,30.1667 -0.5,-0.5 Z"/></g>
<g><path style="opacity:1" fill="#1b1b49" d="M 8.5,12.5 C 18.8333,12.5 29.1667,12.5 39.5,12.5C 40.2563,23.3942 39.0896,34.0609 36,44.5C 32.7031,49.9625 28.5364,54.6291 23.5,58.5C 16.9215,54.0843 12.4215,48.0843 10,40.5C 8.72438,31.2124 8.22438,21.8791 8.5,12.5 Z"/></g>
<g><path style="opacity:1" fill="#232d60" d="M 58.5,12.5 C 60.5,12.5 62.5,12.5 64.5,12.5C 64.5,18.5 64.5,24.5 64.5,30.5C 67.5,30.5 70.5,30.5 73.5,30.5C 73.5,32.1667 73.5,33.8333 73.5,35.5C 68.5,35.5 63.5,35.5 58.5,35.5C 58.5,27.8333 58.5,20.1667 58.5,12.5 Z"/></g>
<g><path style="opacity:1" fill="#2d7bbe" d="M 76.5,12.5 C 82.1667,12.5 87.8333,12.5 93.5,12.5C 93.5,14.1667 93.5,15.8333 93.5,17.5C 90.1667,17.5 86.8333,17.5 83.5,17.5C 83.5,18.5 83.5,19.5 83.5,20.5C 86.5,20.5 89.5,20.5 92.5,20.5C 92.5,22.5 92.5,24.5 92.5,26.5C 89.5,26.5 86.5,26.5 83.5,26.5C 83.5,27.8333 83.5,29.1667 83.5,30.5C 86.8333,30.5 90.1667,30.5 93.5,30.5C 93.5,32.1667 93.5,33.8333 93.5,35.5C 87.8333,35.5 82.1667,35.5 76.5,35.5C 76.5,27.8333 76.5,20.1667 76.5,12.5 Z"/></g>
<g><path style="opacity:1" fill="#2478bc" d="M 103.5,12.5 C 106.5,12.5 109.5,12.5 112.5,12.5C 114.574,20.2966 116.907,27.9633 119.5,35.5C 117.167,35.5 114.833,35.5 112.5,35.5C 113.575,31.0775 111.908,29.0775 107.5,29.5C 103.299,29.2067 101.299,31.2067 101.5,35.5C 99.1432,35.6633 96.8098,35.4966 94.5,35C 97.4018,27.3773 100.402,19.8773 103.5,12.5 Z"/></g>
<g><path style="opacity:1" fill="#2378bc" d="M 129.5,25.5 C 129.443,24.391 129.11,23.391 128.5,22.5C 131.91,22.6162 133.244,20.9496 132.5,17.5C 131.167,17.5 129.833,17.5 128.5,17.5C 126.547,23.0738 125.88,29.0738 126.5,35.5C 124.833,35.5 123.167,35.5 121.5,35.5C 121.5,27.8333 121.5,20.1667 121.5,12.5C 126.511,12.3341 131.511,12.5007 136.5,13C 140.384,17.3922 140.384,21.8922 136.5,26.5C 137.497,29.1617 138.497,31.8284 139.5,34.5C 137.235,35.6474 134.902,35.8141 132.5,35C 131.689,31.7784 130.689,28.6117 129.5,25.5 Z"/></g>
<g><path style="opacity:1" fill="#2579bd" d="M 150.5,24.5 C 150.539,23.2438 150.039,22.2438 149,21.5C 148.501,26.1548 148.334,30.8215 148.5,35.5C 146.833,35.5 145.167,35.5 143.5,35.5C 143.5,27.8333 143.5,20.1667 143.5,12.5C 146.247,12.1866 148.914,12.52 151.5,13.5C 153.946,17.3283 156.113,21.3283 158,25.5C 158.499,21.1794 158.666,16.8461 158.5,12.5C 160.5,12.5 162.5,12.5 164.5,12.5C 164.5,20.1667 164.5,27.8333 164.5,35.5C 161.813,35.6641 159.146,35.4974 156.5,35C 155.134,31.0974 153.134,27.5974 150.5,24.5 Z"/></g>
<g><path style="opacity:1" fill="#2c7cbe" d="M 168.5,12.5 C 170.833,12.5 173.167,12.5 175.5,12.5C 175.5,20.1667 175.5,27.8333 175.5,35.5C 173.167,35.5 170.833,35.5 168.5,35.5C 168.5,27.8333 168.5,20.1667 168.5,12.5 Z"/></g>
<g><path style="opacity:1" fill="#2478bc" d="M 188.5,25.5 C 188.585,24.0047 187.919,23.0047 186.5,22.5C 185.508,26.7828 185.174,31.1161 185.5,35.5C 183.833,35.5 182.167,35.5 180.5,35.5C 180.5,27.8333 180.5,20.1667 180.5,12.5C 183.187,12.3359 185.854,12.5026 188.5,13C 190.485,17.309 192.652,21.4756 195,25.5C 195.499,21.1794 195.666,16.8461 195.5,12.5C 197.5,12.5 199.5,12.5 201.5,12.5C 201.5,20.1667 201.5,27.8333 201.5,35.5C 198.813,35.6641 196.146,35.4974 193.5,35C 191.723,31.7907 190.057,28.624 188.5,25.5 Z"/></g>
<g><path style="opacity:1" fill="#2b7bbe" d="M 213.5,11.5 C 217.548,11.3946 221.548,11.7279 225.5,12.5C 225.5,14.5 225.5,16.5 225.5,18.5C 220.551,16.6114 216.051,17.2781 212,20.5C 209.497,27.814 211.997,31.1474 219.5,30.5C 218.594,27.5641 217.928,24.5641 217.5,21.5C 220.5,21.5 223.5,21.5 226.5,21.5C 226.5,26.1667 226.5,30.8333 226.5,35.5C 221.156,35.666 215.823,35.4994 210.5,35C 201.91,25.8789 202.91,18.0455 213.5,11.5 Z"/></g>
<g><path style="opacity:1" fill="#252f61" d="M 241.5,12.5 C 243.5,12.5 245.5,12.5 247.5,12.5C 247.5,20.1667 247.5,27.8333 247.5,35.5C 245.5,35.5 243.5,35.5 241.5,35.5C 241.5,27.8333 241.5,20.1667 241.5,12.5 Z"/></g>
<g><path style="opacity:1" fill="#2779bd" d="M 252.5,12.5 C 255.247,12.1866 257.914,12.52 260.5,13.5C 262.577,17.5811 264.744,21.5811 267,25.5C 267.499,21.1794 267.666,16.8461 267.5,12.5C 269.5,12.5 271.5,12.5 273.5,12.5C 273.5,20.1667 273.5,27.8333 273.5,35.5C 270.813,35.6641 268.146,35.4974 265.5,35C 263.191,30.8806 261.024,26.7139 259,22.5C 258.501,26.8206 258.334,31.1539 258.5,35.5C 256.5,35.5 254.5,35.5 252.5,35.5C 252.5,27.8333 252.5,20.1667 252.5,12.5 Z"/></g>
<g><path style="opacity:1" fill="#297abd" d="M 281.5,11.5 C 284.881,11.4595 288.214,11.7929 291.5,12.5C 291.5,14.1667 291.5,15.8333 291.5,17.5C 289.076,17.1924 286.743,17.5258 284.5,18.5C 287.112,21.9211 289.446,25.4211 291.5,29C 291.604,31.1454 290.937,32.9788 289.5,34.5C 285.892,35.5932 282.225,35.7599 278.5,35C 277.24,33.1862 277.24,31.3529 278.5,29.5C 280.747,30.3742 283.08,30.7076 285.5,30.5C 285.028,27.1847 283.195,24.8514 280,23.5C 278.888,21.6096 278.054,19.6096 277.5,17.5C 278.432,15.2345 279.765,13.2345 281.5,11.5 Z"/></g>
<g><path style="opacity:1" fill="#2779bd" d="M 293.5,12.5 C 299.833,12.5 306.167,12.5 312.5,12.5C 312.5,14.1667 312.5,15.8333 312.5,17.5C 310.5,17.5 308.5,17.5 306.5,17.5C 306.5,23.5 306.5,29.5 306.5,35.5C 304.167,35.5 301.833,35.5 299.5,35.5C 299.5,29.5 299.5,23.5 299.5,17.5C 297.5,17.5 295.5,17.5 293.5,17.5C 293.5,15.8333 293.5,14.1667 293.5,12.5 Z"/></g>
<g><path style="opacity:1" fill="#2e7dbf" d="M 314.5,12.5 C 316.833,12.5 319.167,12.5 321.5,12.5C 321.5,20.1667 321.5,27.8333 321.5,35.5C 319.167,35.5 316.833,35.5 314.5,35.5C 314.5,27.8333 314.5,20.1667 314.5,12.5 Z"/></g>
<g><path style="opacity:1" fill="#2477bc" d="M 324.5,12.5 C 330.5,12.5 336.5,12.5 342.5,12.5C 342.5,14.1667 342.5,15.8333 342.5,17.5C 340.833,17.5 339.167,17.5 337.5,17.5C 337.5,23.5 337.5,29.5 337.5,35.5C 335.167,35.5 332.833,35.5 330.5,35.5C 330.5,29.5 330.5,23.5 330.5,17.5C 328.5,17.5 326.5,17.5 324.5,17.5C 324.5,15.8333 324.5,14.1667 324.5,12.5 Z"/></g>
<g><path style="opacity:1" fill="#1d76bb" d="M 345.5,12.5 C 347.5,12.5 349.5,12.5 351.5,12.5C 351.334,18.1764 351.501,23.8431 352,29.5C 354,30.8333 356,30.8333 358,29.5C 358.499,23.8431 358.666,18.1764 358.5,12.5C 360.833,12.5 363.167,12.5 365.5,12.5C 365.884,19.5888 365.384,26.5888 364,33.5C 359.024,35.457 353.857,35.957 348.5,35C 347.299,34.0975 346.465,32.9308 346,31.5C 345.5,25.1754 345.334,18.8421 345.5,12.5 Z"/></g>
<g><path style="opacity:1" fill="#2679bd" d="M 367.5,12.5 C 373.833,12.5 380.167,12.5 386.5,12.5C 386.5,14.1667 386.5,15.8333 386.5,17.5C 384.5,17.5 382.5,17.5 380.5,17.5C 380.5,23.5 380.5,29.5 380.5,35.5C 378.167,35.5 375.833,35.5 373.5,35.5C 373.5,29.5 373.5,23.5 373.5,17.5C 371.5,17.5 369.5,17.5 367.5,17.5C 367.5,15.8333 367.5,14.1667 367.5,12.5 Z"/></g>
<g><path style="opacity:1" fill="#1874ba" d="M 389.5,12.5 C 394.833,12.5 400.167,12.5 405.5,12.5C 405.5,14.1667 405.5,15.8333 405.5,17.5C 402.167,17.5 398.833,17.5 395.5,17.5C 395.33,18.8221 395.663,19.9887 396.5,21C 398.81,21.4966 401.143,21.6633 403.5,21.5C 403.5,23.1667 403.5,24.8333 403.5,26.5C 400.833,26.5 398.167,26.5 395.5,26.5C 395.5,27.8333 395.5,29.1667 395.5,30.5C 398.833,30.5 402.167,30.5 405.5,30.5C 405.5,32.1667 405.5,33.8333 405.5,35.5C 400.167,35.5 394.833,35.5 389.5,35.5C 389.5,27.8333 389.5,20.1667 389.5,12.5 Z"/></g>
<g><path style="opacity:1" fill="#5f5e7e" d="M 33.5,17.5 C 33.1788,19.0481 32.1788,19.7148 30.5,19.5C 30.5,20.5 30.5,21.5 30.5,22.5C 29.0762,20.4855 28.4095,18.1522 28.5,15.5C 30.5542,15.3653 32.2209,16.032 33.5,17.5 Z"/></g>
<g><path style="opacity:1" fill="#639fcf" d="M 128.5,17.5 C 128.5,19.1667 128.5,20.8333 128.5,22.5C 129.11,23.391 129.443,24.391 129.5,25.5C 129.119,29.1188 128.119,32.4521 126.5,35.5C 125.88,29.0738 126.547,23.0738 128.5,17.5 Z"/></g>
<g><path style="opacity:1" fill="#fafcfd" d="M 128.5,17.5 C 129.833,17.5 131.167,17.5 132.5,17.5C 133.244,20.9496 131.91,22.6162 128.5,22.5C 128.5,20.8333 128.5,19.1667 128.5,17.5 Z"/></g>
<g><path style="opacity:1" fill="#5b597b" d="M 15.5,17.5 C 15.1788,19.0481 14.1788,19.7148 12.5,19.5C 12.5,20.5 12.5,21.5 12.5,22.5C 11.0762,20.4855 10.4095,18.1522 10.5,15.5C 12.5542,15.3653 14.2209,16.032 15.5,17.5 Z"/></g>
<g><path style="opacity:1" fill="#e3e3e9" d="M 33.5,17.5 C 34.5,17.5 35.5,17.5 36.5,17.5C 35.8363,19.8669 34.503,21.8669 32.5,23.5C 31.8165,23.1373 31.1499,22.8039 30.5,22.5C 30.5,21.5 30.5,20.5 30.5,19.5C 32.1788,19.7148 33.1788,19.0481 33.5,17.5 Z"/></g>
<g><path style="opacity:1" fill="#d9d8e1" d="M 15.5,17.5 C 16.5,17.5 17.5,17.5 18.5,17.5C 17.8333,19.5 17.1667,21.5 16.5,23.5C 14.901,23.7678 13.5676,23.4345 12.5,22.5C 12.5,21.5 12.5,20.5 12.5,19.5C 14.1788,19.7148 15.1788,19.0481 15.5,17.5 Z"/></g>
<g><path style="opacity:1" fill="#8dbcdc" d="M 150.5,24.5 C 149.833,28.1667 149.167,31.8333 148.5,35.5C 148.334,30.8215 148.501,26.1548 149,21.5C 150.039,22.2438 150.539,23.2438 150.5,24.5 Z"/></g>
<g><path style="opacity:1" fill="#b9d4e9" d="M 106.5,19.5 C 107.5,19.5 108.5,19.5 109.5,19.5C 109.5,21.1667 109.5,22.8333 109.5,24.5C 108.167,24.5 106.833,24.5 105.5,24.5C 105.366,22.7085 105.699,21.0418 106.5,19.5 Z"/></g>
<g><path style="opacity:1" fill="#7db1d8" d="M 188.5,25.5 C 187.883,25.3893 187.383,25.056 187,24.5C 186.823,28.3563 186.323,32.023 185.5,35.5C 185.174,31.1161 185.508,26.7828 186.5,22.5C 187.919,23.0047 188.585,24.0047 188.5,25.5 Z"/></g>
<g><path style="opacity:1" fill="#8f8da5" d="M 24.5,39.5 C 25.0283,38.2794 25.695,37.1127 26.5,36C 25.451,35.5078 24.451,35.6744 23.5,36.5C 22.6919,36.1924 22.0253,35.6924 21.5,35C 23.1341,34.5065 24.8008,34.3398 26.5,34.5C 29.1401,31.447 29.1401,28.2803 26.5,25C 23.2424,24.3836 20.2424,24.717 17.5,26C 23.758,20.6572 28.0913,21.9905 30.5,30C 30.1742,32.4845 29.1742,34.6512 27.5,36.5C 28.6888,37.4287 30.0222,37.762 31.5,37.5C 31.5,38.5 31.5,39.5 31.5,40.5C 29.139,40.3259 26.8056,39.9926 24.5,39.5 Z"/></g>
<g><path style="opacity:1" fill="#b5b3c3" d="M 26.5,34.5 C 24.8008,34.3398 23.1341,34.5065 21.5,35C 22.0253,35.6924 22.6919,36.1924 23.5,36.5C 24.451,35.6744 25.451,35.5078 26.5,36C 25.695,37.1127 25.0283,38.2794 24.5,39.5C 21.4824,39.7038 18.4824,40.0371 15.5,40.5C 15.5,39.5 15.5,38.5 15.5,37.5C 19.5274,37.7192 20.1941,36.5525 17.5,34C 18.7932,33.51 20.1266,33.3433 21.5,33.5C 20.6285,30.7284 20.6285,28.0618 21.5,25.5C 26.5257,25.5888 27.859,27.5888 25.5,31.5C 25.685,32.5837 26.0183,33.5837 26.5,34.5 Z"/></g>
<g><path style="opacity:1" fill="#71708c" d="M 24.5,45.5 C 23.4324,46.4345 22.099,46.7678 20.5,46.5C 20.4606,45.4168 20.1272,44.4168 19.5,43.5C 20.8333,42.1667 22.1667,42.1667 23.5,43.5C 22.019,44.944 22.3523,45.6106 24.5,45.5 Z"/></g>
<g><path style="opacity:1" fill="#e1e1e7" d="M 20.5,46.5 C 22.099,46.7678 23.4324,46.4345 24.5,45.5C 25.5676,44.5655 26.901,44.2322 28.5,44.5C 28.1176,49.3713 25.451,51.3713 20.5,50.5C 20.5,49.1667 20.5,47.8333 20.5,46.5 Z"/></g>
<g><path style="opacity:1" fill="#2e3667" d="M 57.5,52.5 C 62.8333,52.5 68.1667,52.5 73.5,52.5C 73.5,54.1667 73.5,55.8333 73.5,57.5C 70.5,57.5 67.5,57.5 64.5,57.5C 64.5,58.8333 64.5,60.1667 64.5,61.5C 66.8333,61.5 69.1667,61.5 71.5,61.5C 71.5,63.1667 71.5,64.8333 71.5,66.5C 69.1667,66.5 66.8333,66.5 64.5,66.5C 64.5,69.8333 64.5,73.1667 64.5,76.5C 62.1667,76.5 59.8333,76.5 57.5,76.5C 57.5,68.5 57.5,60.5 57.5,52.5 Z"/></g>
<g><path style="opacity:1" fill="#317dbf" d="M 76.5,52.5 C 78.8333,52.5 81.1667,52.5 83.5,52.5C 83.5,58.5 83.5,64.5 83.5,70.5C 85.7925,70.7564 87.9592,70.4231 90,69.5C 90.4994,63.8431 90.6661,58.1764 90.5,52.5C 92.8333,52.5 95.1667,52.5 97.5,52.5C 97.6662,58.5092 97.4995,64.5092 97,70.5C 94.9679,74.9361 91.4679,76.9361 86.5,76.5C 81.606,77.1406 78.4394,75.1406 77,70.5C 76.5005,64.5092 76.3338,58.5092 76.5,52.5 Z"/></g>
<g><path style="opacity:1" fill="#2679bd" d="M 99.5,52.5 C 105.833,52.5 112.167,52.5 118.5,52.5C 118.5,54.1667 118.5,55.8333 118.5,57.5C 116.5,57.5 114.5,57.5 112.5,57.5C 112.5,63.8333 112.5,70.1667 112.5,76.5C 110.167,76.5 107.833,76.5 105.5,76.5C 105.5,70.1667 105.5,63.8333 105.5,57.5C 103.5,57.5 101.5,57.5 99.5,57.5C 99.5,55.8333 99.5,54.1667 99.5,52.5 Z"/></g>
<g><path style="opacity:1" fill="#2077bc" d="M 126.5,52.5 C 125.88,58.9262 126.547,64.9262 128.5,70.5C 130.467,70.7394 132.301,70.4061 134,69.5C 134.499,63.8431 134.666,58.1764 134.5,52.5C 136.5,52.5 138.5,52.5 140.5,52.5C 140.666,58.8421 140.5,65.1754 140,71.5C 137.925,75.5375 134.592,77.2041 130,76.5C 125.56,77.3888 122.56,75.7222 121,71.5C 120.5,65.1754 120.334,58.8421 120.5,52.5C 122.5,52.5 124.5,52.5 126.5,52.5 Z"/></g>
<g><path style="opacity:1" fill="#74abd5" d="M 126.5,52.5 C 127.205,58.3992 127.872,64.3992 128.5,70.5C 126.547,64.9262 125.88,58.9262 126.5,52.5 Z"/></g>
<g><path style="opacity:1" fill="#2479bd" d="M 145.5,52.5 C 150.179,52.3342 154.845,52.5008 159.5,53C 163.292,55.0527 164.458,58.2194 163,62.5C 161.702,63.5596 160.535,64.7263 159.5,66C 161.097,69.4196 162.43,72.9196 163.5,76.5C 161.167,76.5 158.833,76.5 156.5,76.5C 153.132,60.8901 151.465,60.8901 151.5,76.5C 149.5,76.5 147.5,76.5 145.5,76.5C 145.5,68.5 145.5,60.5 145.5,52.5 Z"/></g>
<g><path style="opacity:1" fill="#2c7bbe" d="M 166.5,52.5 C 172.167,52.5 177.833,52.5 183.5,52.5C 183.5,54.1667 183.5,55.8333 183.5,57.5C 180.167,57.5 176.833,57.5 173.5,57.5C 173.5,58.5 173.5,59.5 173.5,60.5C 176.5,60.5 179.5,60.5 182.5,60.5C 182.5,62.5 182.5,64.5 182.5,66.5C 179.5,66.5 176.5,66.5 173.5,66.5C 173.5,67.8333 173.5,69.1667 173.5,70.5C 176.833,70.5 180.167,70.5 183.5,70.5C 183.5,72.5 183.5,74.5 183.5,76.5C 177.833,76.5 172.167,76.5 166.5,76.5C 166.5,68.5 166.5,60.5 166.5,52.5 Z"/></g>
<g><path style="opacity:1" fill="#212b5f" d="M 208.5,57.5 C 207.566,58.5676 207.232,59.901 207.5,61.5C 210.167,61.5 212.833,61.5 215.5,61.5C 215.5,62.8333 215.5,64.1667 215.5,65.5C 212.833,65.5 210.167,65.5 207.5,65.5C 207.5,67.5 207.5,69.5 207.5,71.5C 210.833,71.5 214.167,71.5 217.5,71.5C 217.5,73.1667 217.5,74.8333 217.5,76.5C 212.167,76.5 206.833,76.5 201.5,76.5C 201.5,68.5 201.5,60.5 201.5,52.5C 206.833,52.5 212.167,52.5 217.5,52.5C 217.5,54.1667 217.5,55.8333 217.5,57.5C 214.5,57.5 211.5,57.5 208.5,57.5 Z"/></g>
<g><path style="opacity:1" fill="#2678bc" d="M 221.5,52.5 C 223.924,52.1924 226.257,52.5258 228.5,53.5C 228.887,54.7199 229.72,55.3865 231,55.5C 232.546,53.7591 234.546,52.7591 237,52.5C 238.167,52.8333 239.333,53.1667 240.5,53.5C 238.317,56.7022 236.317,60.0356 234.5,63.5C 236.402,67.7392 238.735,71.7392 241.5,75.5C 238.914,76.48 236.247,76.8134 233.5,76.5C 231.685,68.8387 229.352,68.6721 226.5,76C 224.098,76.8141 221.765,76.6474 219.5,75.5C 222.484,71.6866 224.817,67.5199 226.5,63C 224.942,59.3867 223.275,55.8867 221.5,52.5 Z"/></g>
<g><path style="opacity:1" fill="#2f7dbf" d="M 250.5,51.5 C 253.881,51.4595 257.214,51.7929 260.5,52.5C 260.799,54.604 260.466,56.604 259.5,58.5C 253.411,55.9243 250.077,57.9243 249.5,64.5C 249.486,66.5925 250.152,68.4259 251.5,70C 254.482,70.498 257.482,70.6646 260.5,70.5C 260.5,72.5 260.5,74.5 260.5,76.5C 245.307,77.8078 239.807,71.1411 244,56.5C 245.965,54.4497 248.132,52.783 250.5,51.5 Z"/></g>
<g><path style="opacity:1" fill="#1974ba" d="M 271.5,57.5 C 270.566,58.5676 270.232,59.901 270.5,61.5C 273.167,61.5 275.833,61.5 278.5,61.5C 278.5,63.1667 278.5,64.8333 278.5,66.5C 275.833,66.5 273.167,66.5 270.5,66.5C 270.5,67.8333 270.5,69.1667 270.5,70.5C 273.625,71.4794 276.958,71.8128 280.5,71.5C 280.5,73.1667 280.5,74.8333 280.5,76.5C 275.167,76.5 269.833,76.5 264.5,76.5C 264.5,68.5 264.5,60.5 264.5,52.5C 269.833,52.5 275.167,52.5 280.5,52.5C 280.5,54.1667 280.5,55.8333 280.5,57.5C 277.5,57.5 274.5,57.5 271.5,57.5 Z"/></g>
<g><path style="opacity:1" fill="#1875ba" d="M 291.5,52.5 C 291.5,58.8333 291.5,65.1667 291.5,71.5C 294.5,71.5 297.5,71.5 300.5,71.5C 300.5,73.1667 300.5,74.8333 300.5,76.5C 295.5,76.5 290.5,76.5 285.5,76.5C 285.5,68.5 285.5,60.5 285.5,52.5C 287.5,52.5 289.5,52.5 291.5,52.5 Z"/></g>
<g><path style="opacity:1" fill="#2e7dbe" d="M 303.5,52.5 C 305.833,52.5 308.167,52.5 310.5,52.5C 310.5,58.5 310.5,64.5 310.5,70.5C 313.5,70.5 316.5,70.5 319.5,70.5C 319.5,72.5 319.5,74.5 319.5,76.5C 314.167,76.5 308.833,76.5 303.5,76.5C 303.5,68.5 303.5,60.5 303.5,52.5 Z"/></g>
<g><path style="opacity:1" fill="#2277bc" d="M 322.5,52.5 C 327.833,52.5 333.167,52.5 338.5,52.5C 338.5,54.1667 338.5,55.8333 338.5,57.5C 335.167,57.5 331.833,57.5 328.5,57.5C 328.5,58.5 328.5,59.5 328.5,60.5C 331.5,60.5 334.5,60.5 337.5,60.5C 337.5,62.5 337.5,64.5 337.5,66.5C 334.5,66.5 331.5,66.5 328.5,66.5C 328.5,67.8333 328.5,69.1667 328.5,70.5C 331.833,70.5 335.167,70.5 338.5,70.5C 338.5,72.5 338.5,74.5 338.5,76.5C 333.167,76.5 327.833,76.5 322.5,76.5C 322.5,68.5 322.5,60.5 322.5,52.5 Z"/></g>
<g><path style="opacity:1" fill="#307dbf" d="M 356.5,64.5 C 356.783,65.2891 357.283,65.9558 358,66.5C 358.499,61.8452 358.666,57.1785 358.5,52.5C 360.5,52.5 362.5,52.5 364.5,52.5C 364.5,60.5 364.5,68.5 364.5,76.5C 361.813,76.6641 359.146,76.4974 356.5,76C 354.648,71.129 352.148,66.629 349,62.5C 348.501,67.1548 348.334,71.8215 348.5,76.5C 346.5,76.5 344.5,76.5 342.5,76.5C 342.5,68.5 342.5,60.5 342.5,52.5C 345.572,52.1826 348.572,52.5159 351.5,53.5C 353.018,57.2481 354.685,60.9148 356.5,64.5 Z"/></g>
<g><path style="opacity:1" fill="#89b9dc" d="M 358.5,52.5 C 358.666,57.1785 358.499,61.8452 358,66.5C 357.283,65.9558 356.783,65.2891 356.5,64.5C 357.167,60.5 357.833,56.5 358.5,52.5 Z"/></g>
<g><path style="opacity:1" fill="#2c7bbe" d="M 375.5,51.5 C 378.518,51.3354 381.518,51.502 384.5,52C 385.406,53.6995 385.739,55.5328 385.5,57.5C 375.193,56.6236 372.193,60.7902 376.5,70C 379.482,70.498 382.482,70.6646 385.5,70.5C 385.5,72.5 385.5,74.5 385.5,76.5C 377.396,78.5884 371.563,75.9217 368,68.5C 365.66,60.5248 368.16,54.8582 375.5,51.5 Z"/></g>
<g><path style="opacity:1" fill="#2478bc" d="M 396.5,66.5 C 395.549,67.9187 395.216,69.5853 395.5,71.5C 399.167,71.5 402.833,71.5 406.5,71.5C 406.5,73.1667 406.5,74.8333 406.5,76.5C 400.833,76.5 395.167,76.5 389.5,76.5C 389.5,68.5 389.5,60.5 389.5,52.5C 395.167,52.5 400.833,52.5 406.5,52.5C 406.5,54.1667 406.5,55.8333 406.5,57.5C 403.167,57.5 399.833,57.5 396.5,57.5C 396.5,58.5 396.5,59.5 396.5,60.5C 399.167,60.5 401.833,60.5 404.5,60.5C 404.5,62.5 404.5,64.5 404.5,66.5C 401.833,66.5 399.167,66.5 396.5,66.5 Z"/></g>
<g><path style="opacity:1" fill="#eef5fa" d="M 151.5,57.5 C 153.167,57.5 154.833,57.5 156.5,57.5C 157.167,61.5 155.5,63.1667 151.5,62.5C 151.5,60.8333 151.5,59.1667 151.5,57.5 Z"/></g>
<g><path style="opacity:1" fill="#85b6da" d="M 271.5,57.5 C 271.5,58.5 271.5,59.5 271.5,60.5C 274.167,60.5 276.833,60.5 279.5,60.5C 279.795,62.7354 279.461,64.7354 278.5,66.5C 278.5,64.8333 278.5,63.1667 278.5,61.5C 275.833,61.5 273.167,61.5 270.5,61.5C 270.232,59.901 270.566,58.5676 271.5,57.5 Z"/></g>
<g><path style="opacity:1" fill="#686868" d="M 14.5,65.5 C 12.7211,63.6565 10.3878,62.9898 7.5,63.5C 7.5,67.8333 7.5,72.1667 7.5,76.5C 5.56356,72.2853 4.8969,67.6186 5.5,62.5C 8.83333,62.5 12.1667,62.5 15.5,62.5C 15.7373,63.791 15.404,64.791 14.5,65.5 Z"/></g>
<g><path style="opacity:1" fill="#161616" d="M 14.5,65.5 C 9.16667,66.1667 9.16667,66.8333 14.5,67.5C 14.5,68.5 14.5,69.5 14.5,70.5C 13.1667,70.5 11.8333,70.5 10.5,70.5C 10.5,72.5 10.5,74.5 10.5,76.5C 9.5,76.5 8.5,76.5 7.5,76.5C 7.5,72.1667 7.5,67.8333 7.5,63.5C 10.3878,62.9898 12.7211,63.6565 14.5,65.5 Z"/></g>
<g><path style="opacity:1" fill="#151515" d="M 29.5,66.5 C 29.552,68.9029 29.2186,71.2362 28.5,73.5C 28.0472,74.4584 27.3805,75.2917 26.5,76C 18.2525,77.3909 15.0858,73.8909 17,65.5C 21.5331,61.5105 25.6998,61.8439 29.5,66.5 Z"/></g>
<g><path style="opacity:1" fill="#b4b4b4" d="M 31.5,62.5 C 31.5,67.1667 31.5,71.8333 31.5,76.5C 30.71,75.3915 30.21,74.0581 30,72.5C 29.6174,73.056 29.1174,73.3893 28.5,73.5C 29.2186,71.2362 29.552,68.9029 29.5,66.5C 30.1667,65.1667 30.8333,63.8333 31.5,62.5 Z"/></g>
<g><path style="opacity:1" fill="#4a4a4a" d="M 31.5,62.5 C 34.0593,62.1984 36.3926,62.5318 38.5,63.5C 36.5,63.5 34.5,63.5 32.5,63.5C 32.5,67.8333 32.5,72.1667 32.5,76.5C 32.1667,76.5 31.8333,76.5 31.5,76.5C 31.5,71.8333 31.5,67.1667 31.5,62.5 Z"/></g>
<g><path style="opacity:1" fill="#e9e9e9" d="M 21.5,65.5 C 25.6484,65.4531 27.1484,67.4531 26,71.5C 25.6174,72.056 25.1174,72.3893 24.5,72.5C 23.5041,72.5858 22.6708,72.2524 22,71.5C 21.5045,69.5273 21.3379,67.5273 21.5,65.5 Z"/></g>
<g><path style="opacity:1" fill="#6e7596" d="M 208.5,57.5 C 208.5,58.5 208.5,59.5 208.5,60.5C 211.167,60.5 213.833,60.5 216.5,60.5C 216.5,62.5 216.5,64.5 216.5,66.5C 213.833,66.5 211.167,66.5 208.5,66.5C 208.5,67.8333 208.5,69.1667 208.5,70.5C 211.713,70.19 214.713,70.5233 217.5,71.5C 214.167,71.5 210.833,71.5 207.5,71.5C 207.5,69.5 207.5,67.5 207.5,65.5C 210.167,65.5 212.833,65.5 215.5,65.5C 215.5,64.1667 215.5,62.8333 215.5,61.5C 212.833,61.5 210.167,61.5 207.5,61.5C 207.232,59.901 207.566,58.5676 208.5,57.5 Z"/></g>
<g><path style="opacity:1" fill="#9d9d9d" d="M 21.5,65.5 C 21.3379,67.5273 21.5045,69.5273 22,71.5C 22.6708,72.2524 23.5041,72.5858 24.5,72.5C 22.8466,73.7994 21.3466,73.4661 20,71.5C 19.2615,69.1195 19.7615,67.1195 21.5,65.5 Z"/></g>
<g><path style="opacity:1" fill="#191919" d="M 38.5,63.5 C 40.7224,63.5587 41.7224,64.7253 41.5,67C 38.926,69.8011 38.926,72.6344 41.5,75.5C 38.5308,76.8452 36.8641,75.8452 36.5,72.5C 36.4606,71.4168 36.1272,70.4168 35.5,69.5C 36.8532,68.4763 37.5198,67.143 37.5,65.5C 36.5,65.5 35.5,65.5 34.5,65.5C 34.5,69.1667 34.5,72.8333 34.5,76.5C 33.8333,76.5 33.1667,76.5 32.5,76.5C 32.5,72.1667 32.5,67.8333 32.5,63.5C 34.5,63.5 36.5,63.5 38.5,63.5 Z"/></g>
<g><path style="opacity:1" fill="#7bb0d8" d="M 270.5,70.5 C 274.167,70.5 277.833,70.5 281.5,70.5C 281.795,72.7354 281.461,74.7354 280.5,76.5C 280.5,74.8333 280.5,73.1667 280.5,71.5C 276.958,71.8128 273.625,71.4794 270.5,70.5 Z"/></g>
<g><path style="opacity:1" fill="#81b4da" d="M 291.5,52.5 C 292.49,58.31 292.823,64.31 292.5,70.5C 295.5,70.5 298.5,70.5 301.5,70.5C 301.795,72.7354 301.461,74.7354 300.5,76.5C 300.5,74.8333 300.5,73.1667 300.5,71.5C 297.5,71.5 294.5,71.5 291.5,71.5C 291.5,65.1667 291.5,58.8333 291.5,52.5 Z"/></g>
<g><path style="opacity:1" fill="#6ea9d4" d="M 396.5,66.5 C 396.5,67.8333 396.5,69.1667 396.5,70.5C 400.042,70.1872 403.375,70.5206 406.5,71.5C 402.833,71.5 399.167,71.5 395.5,71.5C 395.216,69.5853 395.549,67.9187 396.5,66.5 Z"/></g>
<g><path style="opacity:1" fill="#959595" d="M 36.5,72.5 C 35.8333,73.8333 35.1667,75.1667 34.5,76.5C 34.5,72.8333 34.5,69.1667 34.5,65.5C 35.5,65.5 36.5,65.5 37.5,65.5C 37.5198,67.143 36.8532,68.4763 35.5,69.5C 36.1272,70.4168 36.4606,71.4168 36.5,72.5 Z"/></g>
</svg>
